<svg width="375" height="677" viewBox="0 0 375 677" fill="none" xmlns="http://www.w3.org/2000/svg">
<mask id="mask0_869_71" style="mask-type:alpha" maskUnits="userSpaceOnUse" x="0" y="0" width="375" height="677">
<rect width="375" height="677" fill="#F8CEE3"/>
</mask>
<g mask="url(#mask0_869_71)">
<rect width="375" height="677" fill="url(#paint0_linear_869_71)"/>
<g clip-path="url(#clip0_869_71)">
<path d="M426.064 496.981C426.064 480.582 417.943 467.882 401.601 467.882C396.889 467.882 392.478 468.982 388.568 470.882C385.961 465.382 380.447 461.683 373.93 461.683C365.007 461.683 357.789 468.882 357.789 477.782C357.789 479.682 358.089 481.482 358.691 483.182C357.187 485.582 356.084 488.381 355.282 491.181C352.375 487.581 347.963 485.182 342.951 485.082C341.647 483.982 340.444 482.882 339.141 481.782C336.033 476.282 330.117 472.582 323.3 472.582C319.189 472.582 315.279 473.982 312.272 476.282C311.47 476.682 310.567 477.182 309.865 477.782C309.865 477.782 309.865 477.782 309.765 477.782C306.858 477.782 304.151 478.882 302.146 480.682C300.341 479.882 298.336 479.382 296.23 479.382C288.41 479.382 282.194 485.682 282.194 493.381C282.194 497.281 283.798 500.681 286.305 503.281C286.706 506.381 287.909 509.881 287.307 512.68C286.706 516.08 283.698 518.28 283.097 521.78C282.495 525.68 283.899 530.78 285.102 534.479H285.001C282.294 532.48 278.986 531.28 275.377 531.28C266.454 531.28 259.235 538.479 259.235 547.379C259.235 551.379 260.739 555.079 263.145 557.878C261.742 557.778 260.037 557.578 258.032 558.078C249.209 560.378 242.893 566.478 240.587 575.178C238.482 583.277 240.086 591.877 241.59 599.877C242.492 604.776 243.595 616.976 248.207 620.076C249.811 621.176 251.615 620.576 253.32 620.876C264.047 622.976 274.775 623.776 285.803 623.176C296.732 622.576 310.768 620.976 321.395 617.976C325.405 616.876 419.949 622.176 423.558 620.676" fill="#FFE271"/>
<path d="M348.798 504.925C343.506 508.481 337.615 506.703 331.923 505.123C322.737 502.456 315.049 497.221 305.064 498.011C300.87 498.308 296.976 500.382 293.481 502.357C291.983 503.246 290.885 503.937 289.088 504.332C288.089 504.53 284.195 505.32 284.994 505.024" stroke="#F9EEBF" stroke-width="1.012" stroke-miterlimit="10" stroke-linecap="round" stroke-linejoin="round" stroke-dasharray="0.51 0.51"/>
<path d="M260.086 546.962C264.082 543.458 271.775 545.931 276.171 546.962C281.866 548.302 287.76 549.539 293.555 549.436C297.252 549.333 299.45 547.89 302.747 546.55C307.542 544.591 310.14 545.004 314.935 546.138" stroke="#F9EEBF" stroke-width="1.012" stroke-miterlimit="10" stroke-linecap="round" stroke-linejoin="round" stroke-dasharray="0.51 0.51"/>
<path d="M326.38 537.905C324.884 537.802 323.388 536.466 321.792 536.055C318.201 534.925 314.61 535.028 310.919 536.055C302.64 538.315 295.059 538.829 286.68 536.364C282.092 535.028 274.311 531.843 269.623 533.898" stroke="#F9EEBF" stroke-width="1.012" stroke-miterlimit="10" stroke-linecap="round" stroke-linejoin="round" stroke-dasharray="0.51 0.51"/>
<path d="M293.949 561.98C290.429 561.791 287.413 562.831 283.792 561.98C279.468 560.94 275.043 559.617 270.92 558.01C269.01 557.348 261.468 556.97 260.562 556.119" stroke="#F9EEBF" stroke-width="1.012" stroke-miterlimit="10" stroke-linecap="round" stroke-linejoin="round"/>
<path d="M359.769 496.956C356.188 496.956 352.606 497.147 349.223 496.383C344.547 495.332 340.467 492.847 335.99 491.223C326.737 487.783 319.176 488.548 309.823 490.745C303.256 492.274 296.789 493.707 289.924 492.561C287.835 492.178 284.949 491.987 283.457 490.745" stroke="#F9EEBF" stroke-width="1.012" stroke-miterlimit="10" stroke-linecap="round" stroke-linejoin="round"/>
<path d="M391.723 476.099C388.309 476.637 385.096 478.359 381.481 478.682C377.465 479.112 373.649 478.682 369.633 477.928C365.817 477.175 361.299 475.561 357.383 476.099C357.483 476.529 357.584 476.099 357.885 476.314" stroke="#F9EEBF" stroke-width="1.012" stroke-miterlimit="10" stroke-linecap="round" stroke-linejoin="round"/>
<path d="M383.614 466.503C378.51 466.503 366.101 466.043 361.197 467.883" stroke="#F9EEBF" stroke-width="1.012" stroke-miterlimit="10" stroke-linecap="round" stroke-linejoin="round"/>
<path d="M339.259 516.745C337.06 516.641 335.061 517.99 332.862 518.093C328.765 518.197 324.966 516.952 321.068 516.019C314.672 514.359 308.675 513.217 302.278 515.189C296.781 516.952 290.884 520.168 284.887 518.405" stroke="#F9EEBF" stroke-width="1.012" stroke-miterlimit="10" stroke-linecap="round" stroke-linejoin="round"/>
<path d="M244.346 567.907C254.256 566.263 264.166 570.991 273.775 572.943C277.88 573.766 281.683 572.943 285.788 572.327C288.19 571.916 290.592 570.888 292.995 571.196" stroke="#F9EEBF" stroke-width="1.012" stroke-miterlimit="10" stroke-linecap="round" stroke-linejoin="round"/>
<path opacity="0.46" d="M76.2643 511.964H66.3582L61.4648 520.404L66.3582 528.844H76.2643L81.1577 520.404L76.2643 511.964Z" stroke="#A6DAEF" stroke-width="0.506" stroke-miterlimit="10"/>
<path opacity="0.46" d="M66.5284 511.964L55.2754 491.146" stroke="#A6DAEF" stroke-width="0.506" stroke-miterlimit="10"/>
<path d="M143.769 575.541C143.769 564.277 134.834 555.149 123.665 554.858C121.431 553.79 119.1 553.499 116.769 554.276C115.507 546.604 108.806 540.778 100.842 540.778C99.1906 540.778 97.5396 541.069 95.9857 541.555C91.5181 535.632 93.9461 523.591 91.8095 516.696C90.0613 511.161 86.0794 503.879 80.5435 501.16C75.5904 498.732 75.9788 500.674 73.1623 495.236C72.5796 494.168 71.9969 493.1 71.4141 492.129C69.4717 485.041 63.3531 479.7 55.8749 478.923C49.6591 476.398 42.5694 475.816 34.8968 477.175C28.7782 478.243 25.0876 480.477 19.9403 483.293C17.4151 484.749 17.2209 485.041 15.8612 484.652C13.5303 482.904 10.5196 481.836 7.31459 481.836C-0.0665732 481.836 -6.18517 487.565 -6.76789 494.848C-7.35062 495.236 -7.93334 495.431 -8.61318 495.431C-9.29303 495.431 -9.87575 495.236 -10.4585 495.042C-11.2354 486.788 -18.131 480.38 -26.5805 480.38C-29.1056 480.38 -31.4365 480.962 -33.5732 481.933C-36.1954 477.078 -41.3428 473.777 -47.2672 473.777C-48.5297 473.777 -49.6952 473.874 -50.8606 474.165C-50.8606 474.068 -50.8606 473.874 -50.8606 473.777C-50.8606 461.736 -60.5727 452.025 -72.6156 452.025C-75.6264 452.025 -78.4429 452.608 -81.0651 453.773L-91.3599 448.918L-91.457 494.46C-88.8348 495.528 -75.5293 495.139 -72.5185 495.139C-68.9251 495.139 -65.5258 494.265 -62.5151 492.712C-62.3209 493.489 -62.1266 494.168 -61.8353 494.848C-63.4863 497.664 -65.4287 500.383 -66.8855 503.393C-69.6049 509.122 -70.8675 515.822 -71.0617 522.134C-71.256 526.989 -74.4609 539.71 -69.6049 542.429L-9.09879 600.497L141.729 604.964L140.758 586.126C142.701 583.018 143.769 579.425 143.769 575.541Z" fill="#7CCDF3"/>
<path opacity="0.46" d="M56.9235 516.522H50.0264L46.5293 522.542L50.0264 528.561H56.9235L60.4206 522.542L56.9235 516.522Z" stroke="#A6DAEF" stroke-width="1.518" stroke-miterlimit="10"/>
<path opacity="0.46" d="M129.811 569.309H123.097L119.691 575.146L123.097 580.885H129.811L133.12 575.146L129.811 569.309Z" stroke="#A6DAEF" stroke-width="1.518" stroke-miterlimit="10"/>
<path opacity="0.46" d="M43.8176 492.444H31.0839L24.7656 503.508L31.0839 514.67H43.8176L50.233 503.508L43.8176 492.444Z" stroke="#A6DAEF" stroke-width="1.518" stroke-miterlimit="10"/>
<path d="M10.089 488.74H1.93781L-2.08984 495.868L1.93781 503.094H10.089L14.1167 495.868L10.089 488.74Z" stroke="#A6DAEF" stroke-width="1.012" stroke-miterlimit="10"/>
<path d="M35.8789 476.701L39.7376 483.646H48.5161L52.0854 477.665" stroke="#A6DAEF" stroke-width="1.012" stroke-miterlimit="10"/>
<path d="M101.559 540.6L97.4648 547.778L101.559 554.955H109.943L114.134 547.778" stroke="#A6DAEF" stroke-width="1.012" stroke-miterlimit="10"/>
<path d="M109.642 561.438H104.27L101.631 566.068L104.27 570.698H109.642L112.281 566.068L109.642 561.438Z" stroke="#A6DAEF" stroke-width="1.012" stroke-miterlimit="10"/>
<path d="M14.1172 496.148L24.7672 503.557" stroke="#A6DAEF" stroke-width="0.506" stroke-miterlimit="10"/>
<path d="M31.2487 492.444L23.377 480.868" stroke="#A6DAEF" stroke-width="0.506" stroke-miterlimit="10"/>
<path opacity="0.46" d="M65.5148 483.183L50.2344 503.444L80.7952 515.133L69.8946 506.659" stroke="#A6DAEF" stroke-width="0.506" stroke-miterlimit="10"/>
<path d="M76.1646 557.27L62.7363 548.935" stroke="#A6DAEF" stroke-width="0.506" stroke-miterlimit="10"/>
<path d="M81.2578 560.511L99.3165 550.787" stroke="#A6DAEF" stroke-width="0.506" stroke-miterlimit="10"/>
<path d="M97.002 571.579L104.328 570.698L114.257 589.683L122.932 580.974" stroke="#A6DAEF" stroke-width="0.506" stroke-miterlimit="10"/>
<path d="M266.588 486.899L191.994 537.651" stroke="#D2EBF3" stroke-width="1.0063" stroke-miterlimit="10"/>
<path d="M267.534 489.732L200.494 537.651" stroke="#D2EBF3" stroke-width="1.0063" stroke-miterlimit="10"/>
<path d="M208.166 537.651L266.59 492.8" stroke="#D2EBF3" stroke-width="1.0063" stroke-miterlimit="10"/>
<path d="M267.533 496.105L217.135 537.651" stroke="#D2EBF3" stroke-width="1.0063" stroke-miterlimit="10"/>
<path d="M267.533 500.236L226.695 537.651" stroke="#D2EBF3" stroke-width="1.0063" stroke-miterlimit="10"/>
<path d="M267.532 503.187L235.9 537.651" stroke="#D2EBF3" stroke-width="1.0063" stroke-miterlimit="10"/>
<path d="M267.532 507.082C266.588 506.846 245.225 537.651 245.225 537.651" stroke="#D2EBF3" stroke-width="1.0063" stroke-miterlimit="10"/>
<path d="M270.365 554.765H264.582V610.829H270.365V554.765Z" fill="#99B6C0"/>
<path d="M275.44 554.765H270.365V610.829H275.44V554.765Z" fill="#20758E"/>
<path d="M285.945 539.068L281.106 539.186L270.365 504.721L272.844 504.603L285.945 539.068Z" fill="#20758E"/>
<path d="M277.565 539.068L281.106 539.186L270.366 504.721L268.123 504.603L277.565 539.068Z" fill="#99B6C0"/>
<path d="M285.945 539.068L281.106 539.186L270.365 555.12L275.204 554.884L285.945 539.068Z" fill="#20758E"/>
<path d="M274.497 542.254L265.645 555.002L270.484 554.884L277.211 544.969C276.267 544.025 275.441 543.081 274.497 542.254Z" fill="#99B6C0"/>
<path d="M276.74 539.186L274.615 542.254C275.559 543.081 276.386 544.025 277.212 544.969L281.225 539.068L276.74 539.186Z" fill="#20758E"/>
<path d="M402.204 536.235H166.736V539.068H402.204V536.235Z" fill="white"/>
<path d="M269.161 504.646H272.82V483.165H269.161V504.646Z" fill="#20758E"/>
<path d="M257.973 539.304H262.694L271.664 504.603H269.185L257.973 539.304Z" fill="#20758E"/>
<path d="M257.973 539.304H262.694L275.205 554.766H270.366L257.973 539.304Z" fill="#20758E"/>
<path d="M258.09 539.304L270.365 554.766H264.581L254.549 539.304H258.09Z" fill="#6C929D"/>
<path d="M258.09 539.304L269.184 504.603H265.762L254.549 539.304H258.09Z" fill="white"/>
<path d="M358.061 537.651L270.365 486.191" stroke="white" stroke-width="1.0063" stroke-miterlimit="10" stroke-linecap="round" stroke-linejoin="round"/>
<path d="M348.735 537.651L271.662 489.732" stroke="white" stroke-width="1.0063" stroke-miterlimit="10" stroke-linecap="round" stroke-linejoin="round"/>
<path d="M337.052 537.651L271.428 492.8" stroke="white" stroke-width="1.0063" stroke-miterlimit="10" stroke-linecap="round" stroke-linejoin="round"/>
<path d="M326.428 537.651L271.662 496.105" stroke="white" stroke-width="1.0063" stroke-miterlimit="10" stroke-linecap="round" stroke-linejoin="round"/>
<path d="M315.097 537.651L271.662 499.174" stroke="white" stroke-width="1.0063" stroke-miterlimit="10" stroke-linecap="round" stroke-linejoin="round"/>
<path d="M305.772 537.651L271.662 502.361" stroke="white" stroke-width="1.0063" stroke-miterlimit="10" stroke-linecap="round" stroke-linejoin="round"/>
<path d="M296.33 537.651L271.662 506.256" stroke="white" stroke-width="1.0063" stroke-miterlimit="10" stroke-linecap="round" stroke-linejoin="round"/>
<path d="M269.185 483.24H265.762V504.721H269.185V483.24Z" fill="white"/>
<path d="M110.202 486.899L35.6074 537.651" stroke="#D2EBF3" stroke-width="1.0063" stroke-miterlimit="10"/>
<path d="M111.148 489.732L44.1074 537.651" stroke="#D2EBF3" stroke-width="1.0063" stroke-miterlimit="10"/>
<path d="M51.7793 537.651L110.204 492.8" stroke="#D2EBF3" stroke-width="1.0063" stroke-miterlimit="10"/>
<path d="M111.146 496.105L60.748 537.651" stroke="#D2EBF3" stroke-width="1.0063" stroke-miterlimit="10"/>
<path d="M111.147 500.236L70.3086 537.651" stroke="#D2EBF3" stroke-width="1.0063" stroke-miterlimit="10"/>
<path d="M111.145 503.187L79.5137 537.651" stroke="#D2EBF3" stroke-width="1.0063" stroke-miterlimit="10"/>
<path d="M111.145 507.082C110.201 506.846 88.8379 537.651 88.8379 537.651" stroke="#D2EBF3" stroke-width="1.0063" stroke-miterlimit="10"/>
<path d="M113.979 554.765H108.195V610.829H113.979V554.765Z" fill="#99B6C0"/>
<path d="M119.054 554.765H113.979V610.829H119.054V554.765Z" fill="#20758E"/>
<path d="M129.558 539.068L124.719 539.186L113.979 504.721L116.457 504.603L129.558 539.068Z" fill="#20758E"/>
<path d="M121.179 539.068L124.719 539.186L113.979 504.721L111.736 504.603L121.179 539.068Z" fill="#99B6C0"/>
<path d="M129.558 539.068L124.719 539.186L113.979 555.12L118.818 554.884L129.558 539.068Z" fill="#20758E"/>
<path d="M118.11 542.254L109.258 555.002L114.097 554.884L120.825 544.969C119.88 544.025 119.054 543.081 118.11 542.254Z" fill="#99B6C0"/>
<path d="M120.353 539.186L118.229 542.254C119.173 543.081 119.999 544.025 120.825 544.969L124.838 539.068L120.353 539.186Z" fill="#20758E"/>
<path d="M204.035 536.235H10.3496V539.068H204.035V536.235Z" fill="white"/>
<path d="M112.767 504.646H116.426V483.165H112.767V504.646Z" fill="#20758E"/>
<path d="M101.586 539.304H106.307L115.277 504.603H112.799L101.586 539.304Z" fill="#20758E"/>
<path d="M101.586 539.304H106.307L118.818 554.766H113.979L101.586 539.304Z" fill="#20758E"/>
<path d="M101.703 539.304L113.978 554.766H108.195L98.1621 539.304H101.703Z" fill="#6C929D"/>
<path d="M101.703 539.304L112.798 504.603H109.375L98.1621 539.304H101.703Z" fill="white"/>
<path d="M201.674 537.651L113.979 486.191" stroke="white" stroke-width="1.0063" stroke-miterlimit="10" stroke-linecap="round" stroke-linejoin="round"/>
<path d="M192.348 537.651L115.275 489.732" stroke="white" stroke-width="1.0063" stroke-miterlimit="10" stroke-linecap="round" stroke-linejoin="round"/>
<path d="M180.665 537.651L115.041 492.8" stroke="white" stroke-width="1.0063" stroke-miterlimit="10" stroke-linecap="round" stroke-linejoin="round"/>
<path d="M170.041 537.651L115.275 496.105" stroke="white" stroke-width="1.0063" stroke-miterlimit="10" stroke-linecap="round" stroke-linejoin="round"/>
<path d="M158.71 537.651L115.275 499.174" stroke="white" stroke-width="1.0063" stroke-miterlimit="10" stroke-linecap="round" stroke-linejoin="round"/>
<path d="M149.386 537.651L115.275 502.361" stroke="white" stroke-width="1.0063" stroke-miterlimit="10" stroke-linecap="round" stroke-linejoin="round"/>
<path d="M139.943 537.651L115.275 506.256" stroke="white" stroke-width="1.0063" stroke-miterlimit="10" stroke-linecap="round" stroke-linejoin="round"/>
<path d="M112.798 483.24H109.375V504.721H112.798V483.24Z" fill="white"/>
<path d="M288.853 573.196C288.753 572.394 288.653 571.592 288.653 570.79C288.252 559.563 297.075 550.141 308.304 549.74C308.705 549.74 309.106 549.74 309.507 549.74C314.019 543.526 319.834 539.015 326.852 538.013C325.849 536.209 325.148 534.204 325.047 531.898C324.847 525.383 329.559 519.77 335.775 518.768C336.277 517.264 336.878 515.861 337.48 514.457C337.48 514.357 337.48 514.257 337.48 514.056C337.079 502.83 345.902 493.408 357.131 493.007C361.141 492.907 364.951 493.909 368.26 495.814C368.56 493.608 369.262 491.403 370.465 489.399C374.075 479.174 383.599 471.657 395.129 471.256C397.736 471.156 400.343 471.456 402.849 472.058C403.752 471.958 404.554 471.958 405.456 471.857C405.757 465.242 411.071 459.729 417.888 459.528C420.295 459.428 428.115 459.328 434.532 465.743L436.136 590.837L429.418 608.178L318.831 598.054L279.83 590.637C279.529 583.52 283.139 576.904 288.853 573.196Z" fill="#F9B500"/>
<path d="M430.878 514.563C427.561 516.594 425.048 519.234 421.128 520.25C412.384 522.687 401.831 519.945 393.89 516.086C382.835 510.805 370.673 506.845 358.31 507.352C353.185 507.556 347.556 508.165 342.631 509.282C340.923 509.688 337.505 510.196 336.701 511.516" stroke="#F9EEBF" stroke-width="2.024" stroke-miterlimit="10"/>
<path d="M430.878 529.821C426.97 532.706 418.452 531.47 414.043 531.161C406.026 530.646 398.711 527.967 391.296 524.875C386.987 523.124 381.475 520.651 376.666 521.269C372.457 521.784 368.749 524.36 364.641 525.494C355.722 527.864 346.503 523.536 337.785 522.196C335.38 521.784 328.165 520.548 326.662 523.124" stroke="#F9EEBF" stroke-width="2.024" stroke-miterlimit="10"/>
<path d="M431.833 495.835C430.629 498.521 426.215 499.192 423.707 500.247C418.289 502.452 414.377 502.357 408.959 500.534C400.732 497.753 391.603 495.356 383.376 498.808C376.755 501.589 369.933 503.028 362.809 501.302C357.593 499.959 349.868 495.164 344.35 497.178" stroke="#F9EEBF" stroke-width="2.024" stroke-miterlimit="10"/>
<path d="M433.268 539.373C427.34 540.272 421.814 542.672 415.786 543.072C408.853 543.472 402.623 542.472 395.791 541.572C386.146 540.272 378.007 535.173 370.472 529.274C358.214 519.876 343.545 517.776 328.574 519.176" stroke="#F9EEBF" stroke-width="1.012" stroke-miterlimit="10" stroke-linecap="round" stroke-linejoin="round" stroke-dasharray="0.51 0.51"/>
<path d="M431.832 483.644C425.408 493.575 406.435 487.456 397.501 485.249C386.659 482.54 373.509 481.236 363.471 486.854" stroke="#F9EEBF" stroke-width="1.012" stroke-miterlimit="10" stroke-linecap="round" stroke-linejoin="round" stroke-dasharray="0.51 0.51"/>
<path d="M433.267 559.418C429.655 563.313 423.032 563.612 418.015 563.712C408.885 563.912 399.955 559.617 391.426 556.721C384.503 554.324 377.078 550.929 369.553 551.828C365.54 552.327 361.526 554.324 357.613 555.523C352.195 557.221 347.078 558.419 341.358 557.42C334.335 556.122 327.612 553.526 320.689 551.728C314.769 550.23 307.244 548.932 301.324 550.729" stroke="#F9EEBF" stroke-width="1.012" stroke-miterlimit="10"/>
<path d="M439.004 586.411C434.696 588.211 431.49 589.912 426.681 590.012C420.569 590.012 416.16 587.411 411.051 584.61C403.035 580.209 391.814 574.607 382.295 575.407C376.284 575.907 370.873 579.408 364.662 579.708C355.243 580.109 349.332 575.707 341.016 572.206C334.003 569.205 322.38 565.704 314.666 567.605C310.157 568.705 308.854 572.306 305.247 574.607C301.64 577.008 295.429 577.808 292.623 574.607C290.219 571.806 287.113 570.105 282.203 574.307" stroke="#F9EEBF" stroke-width="2.024" stroke-miterlimit="10" stroke-linecap="round" stroke-linejoin="round" stroke-dasharray="0.51 0.51"/>
<path d="M431.834 555.731C417.494 549.308 402.052 553.422 388.013 558.741C381.997 561.049 376.582 564.762 370.064 565.364C363.245 566.067 355.122 565.465 348.905 562.555C339.078 557.938 333.162 548.706 323.034 544.591C320.527 543.588 317.318 542.986 314.711 542.685C315.313 542.685 315.914 542.685 316.516 542.685" stroke="#F9EEBF" stroke-width="1.012" stroke-miterlimit="10"/>
<path d="M437.093 595.405C430.671 600.285 421.037 599.471 413.612 599.573C402.674 599.573 391.636 597.845 381.3 594.489C372.068 591.439 362.635 583.306 352.4 586.864C347.382 588.593 342.666 589.508 337.348 589.813C328.517 590.321 322.697 586.458 314.368 584.323C302.327 581.171 290.887 581.476 283.16 577.104" stroke="#F9EEBF" stroke-width="2.024" stroke-miterlimit="10"/>
<path d="M45.4774 566.095C45.5428 565.572 45.5428 565.05 45.5428 564.528C45.5428 557.217 39.5905 551.277 32.2646 551.277C32.0029 551.277 31.7413 551.277 31.4797 551.277C28.4054 547.361 24.4808 544.554 19.9021 544.032C20.5562 542.857 20.8833 541.486 20.8833 540.05C20.8833 535.807 17.6782 532.282 13.5573 531.695C13.2303 530.781 12.7724 529.802 12.3145 528.888C12.3145 528.823 12.3145 528.757 12.3145 528.627C12.3145 521.316 6.36224 515.376 -0.963673 515.376C-3.58007 515.376 -6.06565 516.159 -8.15876 517.465C-8.35499 516.029 -8.94368 514.658 -9.7286 513.353C-12.2796 506.76 -18.6898 502.125 -26.2119 502.125C-27.978 502.125 -29.6132 502.386 -31.1831 502.843C-31.7717 502.843 -32.295 502.778 -32.8837 502.778C-33.2108 498.47 -36.8737 495.01 -41.2562 495.01C-42.826 495.01 -44.265 495.402 -45.5078 496.185L-52.0488 494.684L-51.7872 591.943L26.5085 583.131L51.7567 577.387C51.7567 572.622 49.2712 568.444 45.4774 566.095Z" fill="#28B7CA"/>
<path opacity="0.46" d="M20.7683 564.511H13.7874L10.2969 570.434L13.7874 576.357H20.7683L24.3247 570.434L20.7683 564.511Z" stroke="#A6DAEF" stroke-width="1.518" stroke-miterlimit="10"/>
<path opacity="0.46" d="M3.63993 529.909H-0.880145L-3.10742 533.962L-0.880145 538.014H3.63993L5.93272 533.962L3.63993 529.909Z" stroke="#A6DAEF" stroke-width="1.518" stroke-miterlimit="10"/>
<path opacity="0.46" d="M3.87354 551.107H-0.802387L-3.10742 555.126L-0.802387 559.212H3.87354L6.24444 555.126L3.87354 551.107Z" stroke="#A6DAEF" stroke-width="1.518" stroke-miterlimit="10"/>
<path opacity="0.46" d="M8.19286 543.937H6.47835L5.62109 545.496L6.47835 547.055H8.19286L9.05012 545.496L8.19286 543.937Z" stroke="#A6DAEF" stroke-width="1.518" stroke-miterlimit="10"/>
<path opacity="0.46" d="M3.75 559.212L14.0371 564.511" stroke="#A6DAEF" stroke-width="0.506" stroke-miterlimit="10"/>
<path opacity="0.46" d="M-8.40625 545.496H5.62154" stroke="#A6DAEF" stroke-width="0.506" stroke-miterlimit="10"/>
<path opacity="0.46" d="M6.55556 543.937L3.75 538.014" stroke="#A6DAEF" stroke-width="0.506" stroke-miterlimit="10"/>
<path opacity="0.46" d="M6.24414 555.159L21.2071 544.561" stroke="#A6DAEF" stroke-width="0.506" stroke-miterlimit="10"/>
<path opacity="0.46" d="M13.4151 531.561L9.41635 529.286L5.93359 533.962" stroke="#A6DAEF" stroke-width="0.506" stroke-miterlimit="10"/>
<path opacity="0.46" d="M-0.476966 515.57L-1.96633 518.309L-2.48438 519.311L1.20667 525.857H8.58876L10.9199 521.649" stroke="#A6DAEF" stroke-width="0.506" stroke-miterlimit="10"/>
<path opacity="0.46" d="M3.74968 529.909L1.25586 525.857" stroke="#A6DAEF" stroke-width="0.506" stroke-miterlimit="10"/>
<path opacity="0.46" d="M11.8552 525.545L9.36133 529.286" stroke="#A6DAEF" stroke-width="0.506" stroke-miterlimit="10"/>
<path d="M41.2542 500.842L43.2623 490.2L45.5066 501.197V518.462L47.2785 510.776L49.4047 518.462V542.586L51.0584 549.799V563.516H53.539H116.735V559.614H115.199L117.916 556.658L118.388 540.812L120.278 556.658L123.231 559.85L121.341 559.732V565.172L130.555 581.491V592.488H14.0859L15.8578 583.619V549.681L19.4015 542.586V526.976V518.699L21.1733 511.367L22.5908 518.462V500.724L24.5989 490.2L26.4888 500.842L28.4969 490.2L30.6231 500.724H32.6312L34.2849 487.835L35.4662 500.724H36.7655H37.3561L39.3642 490.2L41.2542 500.842Z" fill="#30287D"/>
<path d="M418.06 590.264L408.74 604.204H398.947L389.627 594.517H370.632L366.149 600.187L353.761 589.791L338.424 599.715L320.019 581.994H304.21L297.957 590.5H280.142L278.49 585.656H245.456L243.332 582.703H228.703L227.995 580.812H207.584L201.095 572.779H182.573L175.848 578.804H155.909L152.96 580.458H142.578L141.28 580.34H137.151H131.488L128.656 577.504H106.122L98.5712 569.943H76.8629L71.4359 575.496H62.5874L60.4638 573.369H43.3567L40.0533 570.061H21.4125L17.2832 565.927H-2.41936L-5.95875 569.471L-8.20036 567.108H-13.0375V561.319H-10.9139L-15.2791 555.766L-16.6949 532.847L-18.4646 556.003L-22.5939 561.319H-19.8803V569.116H-27.667L-30.8524 565.454H-37.8132L-43.5942 571.243H-53.9765L-63.5328 551.868H-72.4993H-93.2637V824.301H437.763L437.881 597.825L418.06 590.264Z" fill="#30287D"/>
</g>
</g>
<defs>
<linearGradient id="paint0_linear_869_71" x1="0" y1="338.5" x2="375" y2="338.5" gradientUnits="userSpaceOnUse">
<stop stop-color="#E6E9F0"/>
<stop offset="1" stop-color="#EEF1F5"/>
</linearGradient>
<clipPath id="clip0_869_71">
<rect width="522.763" height="615.86" fill="white" transform="translate(-73.8809 216)"/>
</clipPath>
</defs>
</svg>
