<svg width="1500" height="791" viewBox="0 0 1500 791" fill="none" xmlns="http://www.w3.org/2000/svg">
<mask id="mask0_700_4426" style="mask-type:alpha" maskUnits="userSpaceOnUse" x="0" y="0" width="1500" height="791">
<rect width="1500" height="791" fill="#F8CEE3"/>
</mask>
<g mask="url(#mask0_700_4426)">
<rect width="1500" height="792" fill="url(#paint0_linear_700_4426)"/>
<g clip-path="url(#clip0_700_4426)">
<path d="M1516.27 408.378C1516.27 355.704 1490.18 314.913 1437.69 314.913C1422.56 314.913 1408.39 318.446 1395.83 324.549C1387.46 306.884 1369.74 295 1348.81 295C1320.15 295 1296.97 318.125 1296.97 346.711C1296.97 352.813 1297.93 358.594 1299.86 364.055C1295.03 371.763 1291.49 380.756 1288.92 389.749C1279.58 378.187 1265.41 370.478 1249.31 370.157C1245.12 366.624 1241.26 363.091 1237.07 359.558C1227.09 341.893 1208.09 330.009 1186.19 330.009C1172.99 330.009 1160.43 334.506 1150.77 341.893C1148.19 343.178 1145.29 344.784 1143.04 346.711C1143.04 346.711 1143.04 346.711 1142.72 346.711C1133.38 346.711 1124.68 350.244 1118.24 356.025C1112.44 353.455 1106 351.85 1099.24 351.85C1074.12 351.85 1054.16 372.084 1054.16 396.815C1054.16 409.341 1059.31 420.262 1067.36 428.612C1068.65 438.569 1072.51 449.811 1070.58 458.804C1068.65 469.724 1058.99 476.79 1057.06 488.031C1055.12 500.558 1059.63 516.938 1063.5 528.822H1063.17C1054.48 522.398 1043.85 518.544 1032.26 518.544C1003.6 518.544 980.414 541.669 980.414 570.255C980.414 583.102 985.244 594.986 992.973 603.979C988.464 603.658 982.99 603.015 976.549 604.621C948.211 612.008 927.923 631.601 920.517 659.544C913.754 685.559 918.907 713.181 923.737 738.876C926.635 754.614 930.178 793.798 944.991 803.755C950.143 807.288 955.94 805.361 961.414 806.325C995.871 813.069 1030.33 815.639 1065.75 813.712C1100.85 811.785 1145.94 806.646 1180.07 797.01C1192.95 793.477 1496.62 810.5 1508.22 805.682" fill="#FFE271"/>
<path d="M1268.09 433.894C1251.09 445.314 1232.17 439.604 1213.89 434.528C1184.38 425.963 1159.68 409.149 1127.61 411.687C1114.14 412.639 1101.64 419.301 1090.41 425.645C1085.6 428.501 1082.07 430.721 1076.3 431.99C1073.09 432.625 1060.58 435.163 1063.15 434.211" stroke="#F9EEBF" stroke-width="1.012" stroke-miterlimit="10" stroke-linecap="round" stroke-linejoin="round" stroke-dasharray="0.51 0.51"/>
<path d="M983.145 568.916C995.981 557.659 1020.69 565.605 1034.81 568.916C1053.1 573.219 1072.03 577.192 1090.65 576.861C1102.52 576.53 1109.58 571.895 1120.17 567.591C1135.57 561.301 1143.92 562.625 1159.32 566.267" stroke="#F9EEBF" stroke-width="1.012" stroke-miterlimit="10" stroke-linecap="round" stroke-linejoin="round" stroke-dasharray="0.51 0.51"/>
<path d="M1196.08 539.823C1191.28 539.493 1186.47 535.204 1181.35 533.884C1169.81 530.254 1158.28 530.584 1146.42 533.884C1119.83 541.143 1095.48 542.793 1068.57 534.874C1053.83 530.584 1028.84 520.355 1013.78 526.954" stroke="#F9EEBF" stroke-width="1.012" stroke-miterlimit="10" stroke-linecap="round" stroke-linejoin="round" stroke-dasharray="0.51 0.51"/>
<path d="M1091.91 617.153C1080.61 616.546 1070.92 619.886 1059.29 617.153C1045.4 613.813 1031.19 609.562 1017.95 604.401C1011.81 602.275 987.583 601.061 984.676 598.328" stroke="#F9EEBF" stroke-width="1.012" stroke-miterlimit="10" stroke-linecap="round" stroke-linejoin="round"/>
<path d="M1303.32 408.297C1291.82 408.297 1280.32 408.911 1269.45 406.455C1254.43 403.08 1241.33 395.1 1226.95 389.883C1197.23 378.835 1172.94 381.29 1142.9 388.349C1121.81 393.259 1101.03 397.862 1078.98 394.18C1072.27 392.952 1063 392.338 1058.21 388.349" stroke="#F9EEBF" stroke-width="1.012" stroke-miterlimit="10" stroke-linecap="round" stroke-linejoin="round"/>
<path d="M1405.97 341.305C1395 343.033 1384.68 348.564 1373.07 349.601C1360.17 350.984 1347.91 349.601 1335.01 347.181C1322.76 344.762 1308.24 339.576 1295.66 341.305C1295.99 342.687 1296.31 341.305 1297.28 341.996" stroke="#F9EEBF" stroke-width="1.012" stroke-miterlimit="10" stroke-linecap="round" stroke-linejoin="round"/>
<path d="M1379.92 310.484C1363.53 310.484 1323.67 309.007 1307.92 314.915" stroke="#F9EEBF" stroke-width="1.012" stroke-miterlimit="10" stroke-linecap="round" stroke-linejoin="round"/>
<path d="M1237.45 471.858C1230.39 471.525 1223.96 475.857 1216.9 476.19C1203.74 476.523 1191.54 472.525 1179.02 469.526C1158.47 464.194 1139.21 460.529 1118.66 466.86C1101.01 472.525 1082.07 482.854 1062.8 477.19" stroke="#F9EEBF" stroke-width="1.012" stroke-miterlimit="10" stroke-linecap="round" stroke-linejoin="round"/>
<path d="M932.59 636.191C964.421 630.909 996.251 646.095 1027.12 652.367C1040.3 655.008 1052.52 652.367 1065.7 650.387C1073.42 649.066 1081.13 645.765 1088.85 646.755" stroke="#F9EEBF" stroke-width="1.012" stroke-miterlimit="10" stroke-linecap="round" stroke-linejoin="round"/>
<path opacity="0.46" d="M392.715 456.503H360.897L345.18 483.611L360.897 510.72H392.715L408.433 483.611L392.715 456.503Z" stroke="#A6DAEF" stroke-width="0.506" stroke-miterlimit="10"/>
<path opacity="0.46" d="M361.445 456.503L325.301 389.635" stroke="#A6DAEF" stroke-width="0.506" stroke-miterlimit="10"/>
<path d="M17.3316 230.599H5.77721L0 240.539L5.77721 250.479H17.3316L23.494 240.539L17.3316 230.599Z" stroke="#A6DAEF" stroke-width="0.506" stroke-miterlimit="10"/>
<path d="M119.277 304.696L130.121 339.033" stroke="#A6DAEF" stroke-width="0.506" stroke-miterlimit="10"/>
<path d="M609.541 660.711C609.541 624.531 580.842 595.213 544.968 594.278C537.793 590.847 530.306 589.911 522.819 592.406C518.764 567.766 497.239 549.053 471.659 549.053C466.356 549.053 461.053 549.988 456.062 551.548C441.712 532.522 449.511 493.847 442.648 471.703C437.033 453.925 424.243 430.533 406.462 421.8C390.553 414.002 391.8 420.24 382.754 402.774C380.882 399.343 379.011 395.912 377.139 392.793C370.9 370.025 351.247 352.871 327.227 350.376C307.262 342.266 284.49 340.395 259.846 344.761C240.193 348.192 228.339 355.366 211.806 364.411C203.695 369.089 203.071 370.025 198.704 368.777C191.217 363.163 181.547 359.732 171.252 359.732C147.544 359.732 127.891 378.134 126.02 401.526C124.148 402.774 122.276 403.398 120.093 403.398C117.909 403.398 116.037 402.774 114.166 402.15C111.67 375.639 89.5217 355.054 62.3821 355.054C54.2714 355.054 46.7846 356.925 39.9217 360.044C31.4991 344.45 14.9658 333.845 -4.0631 333.845C-8.11844 333.845 -11.8618 334.157 -15.6052 335.093C-15.6052 334.781 -15.6052 334.157 -15.6052 333.845C-15.6052 295.17 -46.8001 263.981 -85.4818 263.981C-95.1523 263.981 -104.199 265.852 -112.621 269.595L-145.688 254L-146 400.279C-137.577 403.71 -94.8403 402.462 -85.1699 402.462C-73.6278 402.462 -62.7096 399.655 -53.0391 394.665C-52.4152 397.16 -51.7913 399.343 -50.8555 401.526C-56.1586 410.571 -62.3976 419.304 -67.0768 428.973C-75.8114 447.375 -79.8668 468.896 -80.4907 489.169C-81.1146 504.764 -91.4089 545.622 -75.8114 554.355L118.533 740.868L602.99 755.215L599.871 694.708C606.11 684.727 609.541 673.187 609.541 660.711Z" fill="#7CCDF3"/>
<path opacity="0.46" d="M330.597 471.144H308.444L297.211 490.478L308.444 509.813H330.597L341.829 490.478L330.597 471.144Z" stroke="#A6DAEF" stroke-width="1.518" stroke-miterlimit="10"/>
<path opacity="0.46" d="M564.708 640.694H543.142L532.203 659.441L543.142 677.876H564.708L575.334 659.441L564.708 640.694Z" stroke="#A6DAEF" stroke-width="1.518" stroke-miterlimit="10"/>
<path opacity="0.46" d="M288.503 393.805H247.603L227.309 429.342L247.603 465.194H288.503L309.109 429.342L288.503 393.805Z" stroke="#A6DAEF" stroke-width="1.518" stroke-miterlimit="10"/>
<path d="M180.165 381.906H153.984L141.047 404.803L153.984 428.012H180.165L193.102 404.803L180.165 381.906Z" stroke="#A6DAEF" stroke-width="1.012" stroke-miterlimit="10"/>
<path d="M263.004 343.237L275.398 365.546H303.594L315.059 346.336" stroke="#A6DAEF" stroke-width="1.012" stroke-miterlimit="10"/>
<path d="M473.963 548.483L460.812 571.535L473.963 594.588H500.891L514.355 571.535" stroke="#A6DAEF" stroke-width="1.012" stroke-miterlimit="10"/>
<path d="M499.927 615.41H482.672L474.195 630.283L482.672 645.156H499.927L508.403 630.283L499.927 615.41Z" stroke="#A6DAEF" stroke-width="1.012" stroke-miterlimit="10"/>
<path d="M77.9181 377.445H61.396L53.2969 391.574L61.396 405.703H77.9181L86.0172 391.574L77.9181 377.445Z" stroke="#A6DAEF" stroke-width="1.012" stroke-miterlimit="10"/>
<path d="M62.2196 377.445L51.8086 355.135" stroke="#A6DAEF" stroke-width="0.506" stroke-miterlimit="10"/>
<path d="M-1.73438 353.648L28.0113 346.212" stroke="#A6DAEF" stroke-width="0.506" stroke-miterlimit="10"/>
<path d="M193.102 405.703L227.309 429.5" stroke="#A6DAEF" stroke-width="0.506" stroke-miterlimit="10"/>
<path d="M248.131 393.805L222.848 356.623" stroke="#A6DAEF" stroke-width="0.506" stroke-miterlimit="10"/>
<path opacity="0.46" d="M358.19 364.059L309.109 429.137L407.27 466.682L372.257 439.462" stroke="#A6DAEF" stroke-width="0.506" stroke-miterlimit="10"/>
<path d="M392.397 602.025L349.266 575.254" stroke="#A6DAEF" stroke-width="0.506" stroke-miterlimit="10"/>
<path d="M408.758 612.436L466.762 581.203" stroke="#A6DAEF" stroke-width="0.506" stroke-miterlimit="10"/>
<path d="M459.324 647.985L482.855 645.156L514.746 706.135L542.612 678.16" stroke="#A6DAEF" stroke-width="0.506" stroke-miterlimit="10"/>
<path d="M1004.04 375.994L764.441 539.009" stroke="#D2EBF3" stroke-width="1.0063" stroke-miterlimit="10"/>
<path d="M1007.07 385.092L791.738 539.009" stroke="#D2EBF3" stroke-width="1.0063" stroke-miterlimit="10"/>
<path d="M816.379 539.009L1004.04 394.949" stroke="#D2EBF3" stroke-width="1.0063" stroke-miterlimit="10"/>
<path d="M1007.07 405.564L845.191 539.009" stroke="#D2EBF3" stroke-width="1.0063" stroke-miterlimit="10"/>
<path d="M1007.07 418.833L875.898 539.009" stroke="#D2EBF3" stroke-width="1.0063" stroke-miterlimit="10"/>
<path d="M1007.07 428.31L905.469 539.009" stroke="#D2EBF3" stroke-width="1.0063" stroke-miterlimit="10"/>
<path d="M1007.07 440.821C1004.04 440.063 935.418 539.009 935.418 539.009" stroke="#D2EBF3" stroke-width="1.0063" stroke-miterlimit="10"/>
<path d="M1016.17 593.98H997.59V774.055H1016.17V593.98Z" fill="#99B6C0"/>
<path d="M1032.47 593.98H1016.17V774.055H1032.47V593.98Z" fill="#20758E"/>
<path d="M1066.21 543.559L1050.67 543.938L1016.17 433.239L1024.13 432.86L1066.21 543.559Z" fill="#20758E"/>
<path d="M1039.29 543.559L1050.67 543.938L1016.17 433.239L1008.96 432.86L1039.29 543.559Z" fill="#99B6C0"/>
<path d="M1066.21 543.559L1050.67 543.938L1016.17 595.117L1031.71 594.359L1066.21 543.559Z" fill="#20758E"/>
<path d="M1029.44 553.794L1001 594.738L1016.55 594.359L1038.16 562.514C1035.12 559.481 1032.47 556.448 1029.44 553.794Z" fill="#99B6C0"/>
<path d="M1036.64 543.938L1029.82 553.794C1032.85 556.448 1035.5 559.481 1038.16 562.514L1051.05 543.559L1036.64 543.938Z" fill="#20758E"/>
<path d="M1439.63 534.46H683.312V543.559H1439.63V534.46Z" fill="white"/>
<path d="M1012.3 432.997H1024.05V364H1012.3V432.997Z" fill="#20758E"/>
<path d="M976.359 544.317H991.524L1020.34 432.86H1012.37L976.359 544.317Z" fill="#20758E"/>
<path d="M976.359 544.317H991.524L1031.71 593.98H1016.17L976.359 544.317Z" fill="#20758E"/>
<path d="M976.74 544.317L1016.17 593.98H997.591L965.367 544.317H976.74Z" fill="#6C929D"/>
<path d="M976.74 544.317L1012.38 432.86H1001.38L965.367 544.317H976.74Z" fill="white"/>
<path d="M1297.84 539.009L1016.17 373.719" stroke="white" stroke-width="1.0063" stroke-miterlimit="10" stroke-linecap="round" stroke-linejoin="round"/>
<path d="M1267.89 539.009L1020.34 385.092" stroke="white" stroke-width="1.0063" stroke-miterlimit="10" stroke-linecap="round" stroke-linejoin="round"/>
<path d="M1230.36 539.009L1019.58 394.949" stroke="white" stroke-width="1.0063" stroke-miterlimit="10" stroke-linecap="round" stroke-linejoin="round"/>
<path d="M1196.24 539.009L1020.34 405.564" stroke="white" stroke-width="1.0063" stroke-miterlimit="10" stroke-linecap="round" stroke-linejoin="round"/>
<path d="M1159.85 539.009L1020.34 415.421" stroke="white" stroke-width="1.0063" stroke-miterlimit="10" stroke-linecap="round" stroke-linejoin="round"/>
<path d="M1129.9 539.009L1020.34 425.657" stroke="white" stroke-width="1.0063" stroke-miterlimit="10" stroke-linecap="round" stroke-linejoin="round"/>
<path d="M1099.57 539.009L1020.34 438.167" stroke="white" stroke-width="1.0063" stroke-miterlimit="10" stroke-linecap="round" stroke-linejoin="round"/>
<path d="M1012.38 364.242H1001.38V433.239H1012.38V364.242Z" fill="white"/>
<path d="M501.724 375.994L262.129 539.009" stroke="#D2EBF3" stroke-width="1.0063" stroke-miterlimit="10"/>
<path d="M504.758 385.092L289.426 539.009" stroke="#D2EBF3" stroke-width="1.0063" stroke-miterlimit="10"/>
<path d="M314.066 539.009L501.724 394.949" stroke="#D2EBF3" stroke-width="1.0063" stroke-miterlimit="10"/>
<path d="M504.757 405.564L342.879 539.009" stroke="#D2EBF3" stroke-width="1.0063" stroke-miterlimit="10"/>
<path d="M504.757 418.833L373.586 539.009" stroke="#D2EBF3" stroke-width="1.0063" stroke-miterlimit="10"/>
<path d="M504.757 428.31L403.156 539.009" stroke="#D2EBF3" stroke-width="1.0063" stroke-miterlimit="10"/>
<path d="M504.756 440.821C501.724 440.063 433.105 539.009 433.105 539.009" stroke="#D2EBF3" stroke-width="1.0063" stroke-miterlimit="10"/>
<path d="M513.854 593.98H495.277V774.055H513.854V593.98Z" fill="#99B6C0"/>
<path d="M530.157 593.98H513.855V774.055H530.157V593.98Z" fill="#20758E"/>
<path d="M563.897 543.559L548.354 543.938L513.855 433.239L521.817 432.86L563.897 543.559Z" fill="#20758E"/>
<path d="M536.981 543.559L548.354 543.938L513.855 433.239L506.652 432.86L536.981 543.559Z" fill="#99B6C0"/>
<path d="M563.897 543.559L548.354 543.938L513.855 595.117L529.399 594.359L563.897 543.559Z" fill="#20758E"/>
<path d="M527.124 553.794L498.691 594.738L514.235 594.359L535.844 562.514C532.811 559.481 530.157 556.448 527.124 553.794Z" fill="#99B6C0"/>
<path d="M534.328 543.938L527.504 553.794C530.537 556.448 533.19 559.481 535.844 562.514L548.734 543.559L534.328 543.938Z" fill="#20758E"/>
<path d="M803.113 534.46H181V543.559H803.113V534.46Z" fill="white"/>
<path d="M509.963 432.997H521.715V364H509.963V432.997Z" fill="#20758E"/>
<path d="M474.047 544.317H489.211L518.023 432.86H510.062L474.047 544.317Z" fill="#20758E"/>
<path d="M474.047 544.317H489.211L529.396 593.98H513.853L474.047 544.317Z" fill="#20758E"/>
<path d="M474.428 544.317L513.855 593.98H495.279L463.055 544.317H474.428Z" fill="#6C929D"/>
<path d="M474.428 544.317L510.064 432.86H499.07L463.055 544.317H474.428Z" fill="white"/>
<path d="M795.531 539.009L513.855 373.719" stroke="white" stroke-width="1.0063" stroke-miterlimit="10" stroke-linecap="round" stroke-linejoin="round"/>
<path d="M765.58 539.009L518.023 385.092" stroke="white" stroke-width="1.0063" stroke-miterlimit="10" stroke-linecap="round" stroke-linejoin="round"/>
<path d="M728.052 539.009L517.27 394.949" stroke="white" stroke-width="1.0063" stroke-miterlimit="10" stroke-linecap="round" stroke-linejoin="round"/>
<path d="M693.929 539.009L518.023 405.564" stroke="white" stroke-width="1.0063" stroke-miterlimit="10" stroke-linecap="round" stroke-linejoin="round"/>
<path d="M657.534 539.009L518.023 415.421" stroke="white" stroke-width="1.0063" stroke-miterlimit="10" stroke-linecap="round" stroke-linejoin="round"/>
<path d="M627.585 539.009L518.023 425.657" stroke="white" stroke-width="1.0063" stroke-miterlimit="10" stroke-linecap="round" stroke-linejoin="round"/>
<path d="M597.257 539.009L518.023 438.167" stroke="white" stroke-width="1.0063" stroke-miterlimit="10" stroke-linecap="round" stroke-linejoin="round"/>
<path d="M510.064 364.242H499.07V433.239H510.064V364.242Z" fill="white"/>
<path d="M1075.55 653.177C1075.23 650.601 1074.91 648.026 1074.91 645.45C1073.62 609.391 1101.96 579.127 1138.03 577.839C1139.31 577.839 1140.6 577.839 1141.89 577.839C1156.38 557.878 1175.06 543.39 1197.6 540.171C1194.38 534.375 1192.13 527.936 1191.81 520.531C1191.16 499.604 1206.3 481.575 1226.26 478.355C1227.87 473.526 1229.81 469.019 1231.74 464.511C1231.74 464.189 1231.74 463.867 1231.74 463.223C1230.45 427.165 1258.79 396.901 1294.86 395.613C1307.74 395.291 1319.97 398.51 1330.6 404.628C1331.57 397.545 1333.82 390.462 1337.69 384.023C1349.28 351.183 1379.87 327.036 1416.91 325.749C1425.28 325.427 1433.65 326.393 1441.7 328.324C1444.6 328.002 1447.18 328.002 1450.08 327.68C1451.04 306.431 1468.11 288.724 1490.01 288.08C1497.74 287.758 1522.86 287.436 1543.47 308.041L1548.62 709.841L1527.04 765.539L1171.84 733.022L1046.57 709.197C1045.6 686.338 1057.19 665.089 1075.55 653.177Z" fill="#F9B500"/>
<path d="M1531.73 464.85C1521.07 471.374 1513 479.855 1500.41 483.117C1472.33 490.945 1438.43 482.138 1412.93 469.743C1377.41 452.781 1338.35 440.06 1298.64 441.69C1282.18 442.343 1264.1 444.3 1248.28 447.888C1242.79 449.193 1231.82 450.824 1229.23 455.064" stroke="#F9EEBF" stroke-width="2.024" stroke-miterlimit="10"/>
<path d="M1531.73 513.86C1519.18 523.127 1491.82 519.156 1477.66 518.163C1451.91 516.508 1428.41 507.903 1404.59 497.974C1390.75 492.348 1373.05 484.405 1357.6 486.39C1344.08 488.045 1332.17 496.319 1318.98 499.96C1290.33 507.572 1260.72 493.672 1232.72 489.369C1224.99 488.045 1201.82 484.074 1196.99 492.348" stroke="#F9EEBF" stroke-width="2.024" stroke-miterlimit="10"/>
<path d="M1534.8 404.698C1530.93 413.322 1516.75 415.479 1508.7 418.867C1491.3 425.952 1478.73 425.644 1461.33 419.791C1434.91 410.858 1405.58 403.157 1379.16 414.247C1357.89 423.18 1335.98 427.8 1313.1 422.255C1296.34 417.943 1271.53 402.541 1253.8 409.01" stroke="#F9EEBF" stroke-width="2.024" stroke-miterlimit="10"/>
<path d="M1539.41 544.538C1520.37 547.428 1502.62 555.136 1483.25 556.42C1460.99 557.705 1440.98 554.494 1419.03 551.603C1388.05 547.428 1361.91 531.05 1337.71 512.102C1298.33 481.914 1251.22 475.17 1203.13 479.666" stroke="#F9EEBF" stroke-width="1.012" stroke-miterlimit="10" stroke-linecap="round" stroke-linejoin="round" stroke-dasharray="0.51 0.51"/>
<path d="M1534.8 365.538C1514.16 397.439 1453.22 377.783 1424.53 370.694C1389.7 361.994 1347.47 357.805 1315.22 375.85" stroke="#F9EEBF" stroke-width="1.012" stroke-miterlimit="10" stroke-linecap="round" stroke-linejoin="round" stroke-dasharray="0.51 0.51"/>
<path d="M1396.61 327.923C1413.68 334.201 1481.35 350.06 1500.04 349.4C1516.79 348.739 1530.65 340.478 1547.08 337.835" stroke="#F9EEBF" stroke-width="1.012" stroke-miterlimit="10"/>
<path d="M1539.41 608.923C1527.8 621.433 1506.53 622.396 1490.42 622.716C1461.09 623.358 1432.41 609.565 1405.02 600.262C1382.78 592.564 1358.93 581.657 1334.76 584.544C1321.87 586.148 1308.98 592.564 1296.41 596.413C1279 601.866 1262.57 605.715 1244.2 602.508C1221.64 598.338 1200.05 589.998 1177.81 584.224C1158.79 579.412 1134.62 575.242 1115.61 581.016" stroke="#F9EEBF" stroke-width="1.012" stroke-miterlimit="10"/>
<path d="M1557.83 695.624C1543.99 701.407 1533.69 706.869 1518.25 707.19C1498.62 707.19 1484.46 698.837 1468.04 689.84C1442.3 675.703 1406.25 657.71 1375.68 660.281C1356.37 661.887 1339 673.133 1319.04 674.097C1288.79 675.382 1269.8 661.245 1243.09 649.999C1220.57 640.36 1183.24 629.115 1158.46 635.219C1143.97 638.754 1139.79 650.32 1128.21 657.71C1116.62 665.421 1096.67 667.992 1087.66 657.71C1079.93 648.714 1069.96 643.252 1054.19 656.746" stroke="#F9EEBF" stroke-width="2.024" stroke-miterlimit="10" stroke-linecap="round" stroke-linejoin="round" stroke-dasharray="0.51 0.51"/>
<path d="M1534.8 597.08C1488.74 576.45 1439.14 589.666 1394.05 606.75C1374.72 614.163 1357.33 626.09 1336.39 628.024C1314.49 630.28 1288.4 628.346 1268.43 618.998C1236.87 604.171 1217.87 574.516 1185.33 561.301C1177.28 558.077 1166.98 556.143 1158.6 555.176C1160.53 555.176 1162.47 555.176 1164.4 555.176" stroke="#F9EEBF" stroke-width="1.012" stroke-miterlimit="10"/>
<path d="M1551.69 724.512C1531.06 740.186 1500.12 737.574 1476.27 737.9C1441.14 737.9 1405.68 732.349 1372.48 721.573C1342.83 711.776 1312.53 685.652 1279.66 697.081C1263.54 702.632 1248.39 705.572 1231.31 706.551C1202.95 708.184 1184.25 695.775 1157.5 688.917C1118.82 678.794 1082.08 679.774 1057.26 665.732" stroke="#F9EEBF" stroke-width="2.024" stroke-miterlimit="10"/>
<path opacity="0.46" d="M30.7252 595.66L-7.22656 651.684" stroke="#A6DAEF" stroke-width="0.506" stroke-miterlimit="10"/>
<path d="M293.83 630.369C294.04 628.692 294.04 627.014 294.04 625.337C294.04 601.855 274.922 582.776 251.391 582.776C250.551 582.776 249.71 582.776 248.87 582.776C238.995 570.196 226.39 561.181 211.683 559.504C213.784 555.73 214.834 551.327 214.834 546.714C214.834 533.086 204.54 521.765 191.304 519.878C190.253 516.943 188.783 513.798 187.312 510.862C187.312 510.653 187.312 510.443 187.312 510.024C187.312 486.542 168.193 467.463 144.663 467.463C136.259 467.463 128.275 469.978 121.552 474.172C120.922 469.559 119.031 465.156 116.51 460.963C108.316 439.787 87.7268 424.901 63.5658 424.901C57.8932 424.901 52.6408 425.74 47.5985 427.208C45.7077 427.208 44.0269 426.998 42.1361 426.998C41.0856 413.16 29.3202 402.048 15.2439 402.048C10.2016 402.048 5.57947 403.306 1.58766 405.822L-19.4219 401L-18.5815 713.395L232.903 685.091L313.999 666.64C313.999 651.335 306.016 637.917 293.83 630.369Z" fill="#28B7CA"/>
<path opacity="0.46" d="M76.1478 522.153H61.0238L53.6719 535.17L61.0238 548.186H76.1478L83.7098 535.17L76.1478 522.153Z" stroke="#A6DAEF" stroke-width="0.506" stroke-miterlimit="10"/>
<path opacity="0.46" d="M76.5018 572.216H53.8676L42.6562 591.24L53.8676 610.264H76.5018L87.7132 591.24L76.5018 572.216Z" stroke="#A6DAEF" stroke-width="1.518" stroke-miterlimit="10"/>
<path opacity="0.46" d="M214.466 625.283H192.043L180.832 644.307L192.043 663.332H214.466L225.889 644.307L214.466 625.283Z" stroke="#A6DAEF" stroke-width="1.518" stroke-miterlimit="10"/>
<path opacity="0.46" d="M159.45 514.143H144.931L137.777 527.159L144.931 540.176H159.45L166.814 527.159L159.45 514.143Z" stroke="#A6DAEF" stroke-width="1.518" stroke-miterlimit="10"/>
<path opacity="0.46" d="M160.2 582.229H145.181L137.777 595.14L145.181 608.262H160.2L167.815 595.14L160.2 582.229Z" stroke="#A6DAEF" stroke-width="1.518" stroke-miterlimit="10"/>
<path opacity="0.46" d="M116.553 557.197H107.937L103.734 564.601L107.937 572.216H116.553L120.756 564.601L116.553 557.197Z" stroke="#A6DAEF" stroke-width="1.518" stroke-miterlimit="10"/>
<path opacity="0.46" d="M89.9674 622.28H82.4579L78.7031 628.788L82.4579 635.296H89.9674L93.7221 628.788L89.9674 622.28Z" stroke="#A6DAEF" stroke-width="0.506" stroke-miterlimit="10"/>
<path opacity="0.46" d="M81.8109 464.08H67.5839L60.6797 476.095L67.5839 488.11H81.8109L88.7151 476.095L81.8109 464.08Z" stroke="#A6DAEF" stroke-width="0.506" stroke-miterlimit="10"/>
<path opacity="0.46" d="M119.649 506.133H105.631L98.7266 518.649L105.631 531.164H119.649L126.762 518.649L119.649 506.133Z" stroke="#A6DAEF" stroke-width="0.506" stroke-miterlimit="10"/>
<path opacity="0.46" d="M174.073 559.2H168.566L165.812 564.206L168.566 569.213H174.073L176.826 564.206L174.073 559.2Z" stroke="#A6DAEF" stroke-width="1.518" stroke-miterlimit="10"/>
<path opacity="0.46" d="M81.707 464.08L87.7146 451.063" stroke="#A6DAEF" stroke-width="0.506" stroke-miterlimit="10"/>
<path opacity="0.46" d="M81.707 488.11L105.737 506.133" stroke="#A6DAEF" stroke-width="0.506" stroke-miterlimit="10"/>
<path opacity="0.46" d="M83.707 535.17L105.735 531.164" stroke="#A6DAEF" stroke-width="0.506" stroke-miterlimit="10"/>
<path opacity="0.46" d="M75.6992 548.186L103.735 564.206" stroke="#A6DAEF" stroke-width="0.506" stroke-miterlimit="10"/>
<path opacity="0.46" d="M82.7068 622.28L76.6992 610.264" stroke="#A6DAEF" stroke-width="0.506" stroke-miterlimit="10"/>
<path opacity="0.46" d="M144.784 608.262L114.746 666.335" stroke="#A6DAEF" stroke-width="0.506" stroke-miterlimit="10"/>
<path opacity="0.46" d="M159.805 608.262L192.846 625.283" stroke="#A6DAEF" stroke-width="0.506" stroke-miterlimit="10"/>
<path opacity="0.46" d="M120.754 564.206H165.811" stroke="#A6DAEF" stroke-width="0.506" stroke-miterlimit="10"/>
<path opacity="0.46" d="M168.816 559.2L159.805 540.176" stroke="#A6DAEF" stroke-width="0.506" stroke-miterlimit="10"/>
<path opacity="0.46" d="M137.776 527.159L126.762 519.149" stroke="#A6DAEF" stroke-width="0.506" stroke-miterlimit="10"/>
<path opacity="0.46" d="M137.777 595.245L116.75 572.216" stroke="#A6DAEF" stroke-width="0.506" stroke-miterlimit="10"/>
<path opacity="0.46" d="M167.816 595.245L215.877 561.202" stroke="#A6DAEF" stroke-width="0.506" stroke-miterlimit="10"/>
<path opacity="0.46" d="M190.843 519.447L177.999 512.14L166.812 527.159" stroke="#A6DAEF" stroke-width="0.506" stroke-miterlimit="10"/>
<path opacity="0.46" d="M78.3387 427.033L76.6992 430.01L88.3806 451.063H111.744" stroke="#A6DAEF" stroke-width="0.506" stroke-miterlimit="10"/>
<path opacity="0.46" d="M146.225 468.085L141.441 476.881L139.777 480.1L151.633 501.126H175.344L182.832 487.609" stroke="#A6DAEF" stroke-width="0.506" stroke-miterlimit="10"/>
<path opacity="0.46" d="M159.803 514.143L151.793 501.126" stroke="#A6DAEF" stroke-width="0.506" stroke-miterlimit="10"/>
<path opacity="0.46" d="M185.838 500.125L177.828 512.14" stroke="#A6DAEF" stroke-width="0.506" stroke-miterlimit="10"/>
<path d="M280.264 420.781L286.714 386.596L293.923 421.92V477.374L299.614 452.686L306.443 477.374V554.859L311.755 578.028V622.088H319.722H522.706V609.553H517.773L526.5 600.058L528.017 549.161L534.088 600.058L543.573 610.313L537.503 609.933V627.405L567.096 679.821V715.145H193L198.691 686.658V577.648L210.073 554.859V504.722V478.134L215.764 454.585L220.317 477.374V420.401L226.767 386.596L232.838 420.781L239.288 386.596L246.117 420.401H252.567L257.879 379L261.673 420.401H265.846H267.743L274.193 386.596L280.264 420.781Z" fill="#30287D"/>
<path d="M1490.56 707.999L1460.62 752.776H1429.17L1399.23 721.66H1338.22L1323.82 739.874L1284.03 706.481L1234.77 738.356L1175.65 681.436H1124.87L1104.79 708.758H1047.57L1042.26 693.2H936.155L929.334 683.713H882.345L880.071 677.642H814.513L793.671 651.838H734.176L712.576 671.191H648.534L639.06 676.503H605.712L601.544 676.124H588.281H570.091L560.997 667.017H488.618L464.365 642.731H394.638L377.207 660.566H348.786L341.965 653.735H287.017L276.407 643.11H216.533L203.27 629.829H139.985L128.617 641.213L121.417 633.624H105.88V615.03H112.701L98.68 597.195L94.1326 523.578L88.4484 597.954L75.1852 615.03H83.901V640.075H58.8904L48.6588 628.311H26.3009L7.73245 646.905H-25.615L-56.3098 584.672H-85.1098H-151.805V1459.72H1553.84L1554.22 732.285L1490.56 707.999Z" fill="#30287D"/>
</g>
</g>
<defs>
<linearGradient id="paint0_linear_700_4426" x1="0" y1="396" x2="1500" y2="396" gradientUnits="userSpaceOnUse">
<stop stop-color="#E6E9F0"/>
<stop offset="1" stop-color="#EEF1F5"/>
</linearGradient>
<clipPath id="clip0_700_4426">
<rect width="1500" height="1355.76" fill="white" transform="translate(0 -474.643)"/>
</clipPath>
</defs>
</svg>
